<svg width="35" height="35" viewBox="0 0 35 35" fill="none" xmlns="http://www.w3.org/2000/svg">
<g clip-path="url(#clip0_1_12049)">
<rect width="35" height="35" rx="17.5" fill="white" fill-opacity="0.16"/>
<g filter="url(#filter0_d_1_12049)">
<path d="M17.739 22.1609C20.2864 22.1609 22.3515 20.0911 22.3515 17.5379C22.3515 14.9847 20.2864 12.9149 17.739 12.9149C15.1915 12.9149 13.1264 14.9847 13.1264 17.5379C13.1264 20.0911 15.1915 22.1609 17.739 22.1609Z" fill="#D61D64"/>
<path d="M25.0594 19.3448C25.0594 19.3448 22.728 18.457 21.8128 16.8051" stroke="#D61D64" stroke-width="2" stroke-miterlimit="10"/>
<path d="M10.4312 15.8813C10.4312 15.8813 12.7626 16.769 13.6779 18.421" stroke="#D61D64" stroke-width="2" stroke-miterlimit="10"/>
<path d="M29.8472 15.3621C29.6484 14.3907 29.2526 12.9637 28.4817 11.4771C26.8136 8.45277 23.937 6.19392 20.5039 5.35188C19.4895 5.13026 18.3687 5.00423 17.1285 5C17.0842 5.00127 17.0395 5.00169 16.9948 5.00338C16.8707 5.00761 16.7517 5.01776 16.6302 5.02495C13.4173 5.25122 10.5407 6.69086 8.45114 8.89135C6.57338 10.9658 5.74885 13.2331 5.51972 13.9555C5.49651 14.0341 5.47415 14.1136 5.4522 14.1932L10.4475 16.2786C10.4475 16.2786 10.4737 16.0769 10.5585 15.7487C11.267 12.8571 13.6511 10.63 16.6154 10.1758C16.6213 10.1745 16.6268 10.1732 16.6327 10.172C16.6369 10.172 16.6412 10.172 16.6454 10.172C17.002 10.1187 17.3665 10.0903 17.7379 10.0903C19.1456 10.0903 20.4613 10.4866 21.5812 11.1739C22.4323 11.6412 23.007 12.2151 23.4189 12.77C23.9058 13.3575 24.3033 14.0219 24.5932 14.7425C25.7941 16.0756 29.5935 16.5624 30.0003 16.611C29.9699 16.1885 29.9185 15.7719 29.8472 15.3621Z" fill="white"/>
<path d="M5.15318 19.638C5.35192 20.6095 5.74773 22.0364 6.51867 23.523C8.18672 26.5474 11.0637 28.8062 14.4964 29.6483C15.5109 29.8699 16.6316 29.9959 17.8718 30.0002C17.9161 29.9989 17.9608 29.9985 18.0055 29.9968C18.1296 29.9925 18.2486 29.9824 18.3701 29.9752C21.583 29.7489 24.4596 28.3093 26.5492 26.1088C28.4269 24.0344 29.2515 21.767 29.4806 21.0447C29.5038 20.966 29.5262 20.8865 29.5481 20.807L24.5528 18.7215C24.5528 18.7215 24.5267 18.9233 24.4419 19.2515C23.7334 22.143 21.3492 24.3702 18.3849 24.8244C18.379 24.8257 18.3735 24.8269 18.3676 24.8282C18.3634 24.8282 18.3592 24.8282 18.3549 24.8282C17.9984 24.8815 17.6338 24.9098 17.2625 24.9098C15.8548 24.9098 14.5391 24.5135 13.4192 23.8263C12.568 23.3589 11.9933 22.785 11.5815 22.2301C11.0945 21.6427 10.697 20.9783 10.4071 20.2576C9.2062 18.9246 5.40678 18.4378 5 18.3891C5.02996 18.8116 5.08144 19.2282 5.15318 19.638Z" fill="white"/>
</g>
</g>
<defs>
<filter id="filter0_d_1_12049" x="5" y="3" width="33.0003" height="33.0002" filterUnits="userSpaceOnUse" color-interpolation-filters="sRGB">
<feFlood flood-opacity="0" result="BackgroundImageFix"/>
<feColorMatrix in="SourceAlpha" type="matrix" values="0 0 0 0 0 0 0 0 0 0 0 0 0 0 0 0 0 0 127 0" result="hardAlpha"/>
<feOffset dx="4" dy="2"/>
<feGaussianBlur stdDeviation="2"/>
<feComposite in2="hardAlpha" operator="out"/>
<feColorMatrix type="matrix" values="0 0 0 0 0 0 0 0 0 0 0 0 0 0 0 0 0 0 0.3 0"/>
<feBlend mode="normal" in2="BackgroundImageFix" result="effect1_dropShadow_1_12049"/>
<feBlend mode="normal" in="SourceGraphic" in2="effect1_dropShadow_1_12049" result="shape"/>
</filter>
<clipPath id="clip0_1_12049">
<rect width="35" height="35" rx="17.5" fill="white"/>
</clipPath>
</defs>
</svg>
