<svg width="17" height="17" viewBox="0 0 17 17" fill="none" xmlns="http://www.w3.org/2000/svg">
<path d="M13.221 2.89881C13.3857 3.29723 13.7019 3.61392 14.1001 3.77926L15.4962 4.35758C15.8946 4.52263 16.2112 4.8392 16.3762 5.23765C16.5413 5.6361 16.5413 6.08379 16.3762 6.48225L15.7984 7.87744C15.6332 8.27607 15.633 8.72422 15.7989 9.12266L16.3758 10.5174C16.4576 10.7148 16.4997 10.9263 16.4997 11.14C16.4998 11.3536 16.4577 11.5651 16.376 11.7625C16.2942 11.9599 16.1744 12.1392 16.0233 12.2903C15.8722 12.4413 15.6928 12.5611 15.4954 12.6428L14.1003 13.2207C13.7019 13.3854 13.3852 13.7016 13.2199 14.0998L12.6416 15.496C12.4765 15.8945 12.16 16.211 11.7615 16.3761C11.3631 16.5411 10.9154 16.5411 10.517 16.3761L9.12184 15.7982C8.72339 15.6335 8.27587 15.6339 7.87767 15.7991L6.48152 16.3766C6.0833 16.5413 5.63601 16.5411 5.2379 16.3762C4.83979 16.2113 4.52341 15.8951 4.35825 15.4971L3.77978 14.1005C3.61504 13.7021 3.29884 13.3854 2.90068 13.22L1.50453 12.6417C1.10627 12.4767 0.789805 12.1604 0.624706 11.7621C0.459607 11.3639 0.459383 10.9164 0.624083 10.518L1.20197 9.12284C1.3666 8.72438 1.36627 8.27684 1.20104 7.87863L0.623978 6.48143C0.542162 6.28408 0.500034 6.07254 0.5 5.85891C0.499966 5.64527 0.542026 5.43372 0.623778 5.23635C0.705531 5.03897 0.825372 4.85964 0.976455 4.7086C1.12754 4.55756 1.3069 4.43777 1.50429 4.35608L2.89944 3.77817C3.2975 3.61358 3.61399 3.29776 3.77945 2.90005L4.35775 1.50385C4.52279 1.1054 4.83935 0.788827 5.23778 0.623783C5.63622 0.458739 6.0839 0.458739 6.48234 0.623783L7.87748 1.20169C8.27593 1.36633 8.72345 1.36599 9.12165 1.20076L10.5184 0.624679C10.9168 0.459728 11.3644 0.459762 11.7627 0.624773C12.1611 0.789785 12.4776 1.10626 12.6427 1.50461L13.2211 2.90122L13.221 2.89881Z" stroke="#D9D9D9" stroke-linecap="round" stroke-linejoin="round"/>
<path d="M11.7002 11.7002L8.5002 8.50018L5.3002 11.7002" stroke="#51FF00" stroke-linecap="round" stroke-linejoin="round"/>
<path d="M11.7002 8.50017L8.50021 5.30017L5.30021 8.50017" stroke="#51FF00" stroke-linecap="round" stroke-linejoin="round"/>
</svg>
