<svg width="70" height="19" viewBox="0 0 70 19" fill="none" xmlns="http://www.w3.org/2000/svg">
<path d="M20.0418 18.4478L18.0923 11.4595C18.0584 11.3916 18.0163 11.3577 17.9662 11.3577H17.1046C17.0205 11.3577 16.9785 11.3997 16.9785 11.4837V18.3961C16.9785 18.4801 16.9494 18.5529 16.8896 18.6111C16.8298 18.6709 16.7587 18.7 16.6746 18.7H13.7115C13.6274 18.7 13.5547 18.6709 13.4965 18.6111C13.4367 18.5513 13.4076 18.4801 13.4076 18.3961V1.28175C13.4076 1.19769 13.4367 1.12657 13.4965 1.06675C13.5563 1.00856 13.6274 0.97784 13.7115 0.97784H18.8262C19.7541 0.97784 20.5818 1.20092 21.3076 1.6487C22.0334 2.09649 22.5944 2.72532 22.992 3.53521C23.3881 4.3451 23.5869 5.27461 23.5869 6.32051C23.5869 7.3163 23.3978 8.19409 23.0179 8.95387C22.638 9.71364 22.111 10.3037 21.4353 10.7256C21.4014 10.7418 21.3755 10.7628 21.3593 10.7886C21.3415 10.8145 21.3415 10.8436 21.3593 10.8775L23.6888 18.346L23.7146 18.4478C23.7146 18.6159 23.6209 18.7016 23.4366 18.7016H20.3991C20.21 18.7016 20.0936 18.6176 20.0418 18.4478ZM16.9785 4.1689V8.498C16.9785 8.58206 17.0205 8.62408 17.1046 8.62408H18.2443C18.768 8.62408 19.1932 8.41717 19.5229 8.00334C19.8527 7.5895 20.016 7.03664 20.016 6.34476C20.016 5.6351 19.8511 5.07416 19.5229 4.66032C19.1932 4.24649 18.768 4.03957 18.2443 4.03957H17.1046C17.0205 4.04119 16.9785 4.08484 16.9785 4.1689Z" fill="white"/>
<path d="M35.9706 3.9539C35.9108 4.01371 35.8397 4.04281 35.7556 4.04281H30.4647C30.3806 4.04281 30.3386 4.08484 30.3386 4.1689V8.16984C30.3386 8.2539 30.3806 8.29593 30.4647 8.29593H33.5022C33.5862 8.29593 33.6574 8.32503 33.7172 8.38484C33.7754 8.44465 33.8061 8.51578 33.8061 8.59984V11.0554C33.8061 11.1394 33.777 11.2122 33.7172 11.2704C33.6574 11.3302 33.5862 11.3593 33.5022 11.3593H30.4647C30.3806 11.3593 30.3386 11.4013 30.3386 11.4854V15.5106C30.3386 15.5946 30.3806 15.6366 30.4647 15.6366H35.7556C35.8397 15.6366 35.9108 15.6657 35.9706 15.7256C36.0288 15.7854 36.0596 15.8565 36.0596 15.9406V18.3961C36.0596 18.4801 36.0305 18.5529 35.9706 18.6111C35.9108 18.6709 35.8397 18.7 35.7556 18.7H27.0716C26.9875 18.7 26.9148 18.6709 26.8566 18.6111C26.7968 18.5513 26.7677 18.4801 26.7677 18.3961V1.28175C26.7677 1.19769 26.7968 1.12657 26.8566 1.06675C26.9164 1.00856 26.9875 0.97784 27.0716 0.97784H35.7556C35.8397 0.97784 35.9108 1.00694 35.9706 1.06675C36.0288 1.12657 36.0596 1.19769 36.0596 1.28175V3.73728C36.0596 3.82296 36.0288 3.89408 35.9706 3.9539Z" fill="white"/>
<path d="M47.8727 17.4359C46.9271 18.2797 45.7033 18.7016 44.2016 18.7016H39.4166C39.3326 18.7016 39.2598 18.6725 39.2016 18.6127C39.1418 18.5529 39.1127 18.4818 39.1127 18.3977V1.28175C39.1127 1.19769 39.1418 1.12657 39.2016 1.06675C39.2614 1.00856 39.3326 0.97784 39.4166 0.97784H43.6455C45.3332 0.97784 46.6539 1.3836 47.6076 2.19348C48.5614 3.00337 49.0383 4.21092 49.0383 5.81453C49.0383 7.48604 48.4644 8.70007 47.3167 9.45984C47.2488 9.50996 47.2407 9.56169 47.2908 9.6118C48.6244 10.5575 49.2904 11.9574 49.2904 13.8148C49.2904 15.3845 48.8168 16.592 47.8727 17.4359ZM42.682 4.1689V8.14398C42.682 8.22804 42.7241 8.27006 42.8081 8.27006H43.7198C44.2937 8.27006 44.7415 8.08901 45.0616 7.72529C45.3817 7.36318 45.5433 6.85236 45.5433 6.19281C45.5433 5.50093 45.3865 4.96909 45.0745 4.59728C44.7625 4.22709 44.3099 4.03957 43.7198 4.03957H42.8081C42.7241 4.04119 42.682 4.08484 42.682 4.1689ZM45.2394 15.0046C45.5595 14.5988 45.7211 14.0266 45.7211 13.283C45.7211 12.541 45.5611 11.9493 45.2394 11.5112C44.9193 11.0732 44.4877 10.8533 43.9478 10.8533H42.8081C42.7241 10.8533 42.682 10.8953 42.682 10.9794V15.4863C42.682 15.5704 42.7241 15.6124 42.8081 15.6124H43.9219C44.4796 15.6124 44.9177 15.4103 45.2394 15.0046Z" fill="white"/>
<path d="M69.5484 1.06675C69.6082 1.12657 69.6373 1.19769 69.6373 1.28175V3.73728C69.6373 3.82134 69.6082 3.89408 69.5484 3.95228C69.4886 4.01209 69.4174 4.04119 69.3334 4.04119H66.1682C66.0841 4.04119 66.0421 4.08322 66.0421 4.16728V18.3961C66.0421 18.4801 66.013 18.5529 65.9532 18.6111C65.8934 18.6709 65.8222 18.7 65.7382 18.7H62.7751C62.691 18.7 62.6183 18.6709 62.5601 18.6111C62.5003 18.5513 62.4712 18.4801 62.4712 18.3961V4.16728C62.4712 4.08322 62.4291 4.04119 62.3451 4.04119H59.3076C59.2235 4.04119 59.1508 4.01209 59.0926 3.95228C59.0328 3.89247 59.0037 3.82134 59.0037 3.73728V1.28175C59.0037 1.19769 59.0328 1.12657 59.0926 1.06675C59.1508 1.00856 59.2235 0.97784 59.3076 0.97784H69.3334C69.4174 0.97784 69.4886 1.00856 69.5484 1.06675Z" fill="white"/>
<path d="M3.6049 9.15272V5.67877C3.6049 5.134 3.74554 4.68783 4.02682 4.34027C4.3081 3.99272 4.68637 3.80681 5.16487 3.78256C5.64175 3.7567 6.02487 3.9038 6.31584 4.22065C6.6052 4.53749 6.75069 4.9691 6.75069 5.51388V8.71625L10.354 8.21513V5.47832C10.354 3.94422 9.88032 2.74313 8.93464 1.87343C7.98896 1.00373 6.73291 0.609293 5.16487 0.691736C3.59682 0.77418 2.34561 1.29956 1.40802 2.26786C0.470424 3.23617 0.00324249 4.48738 0.00324249 6.02148V9.65384L3.6049 9.15272Z" fill="white"/>
<path d="M6.74906 11.0716V13.9991C6.74906 14.5439 6.60358 14.9901 6.31421 15.3376C6.02485 15.6852 5.64012 15.8711 5.16324 15.8953C4.68636 15.9212 4.30808 15.7741 4.02519 15.4572C3.74391 15.1404 3.60327 14.7088 3.60327 14.164V11.508L0 12.0092V14.1996C0 15.7337 0.468798 16.9348 1.40478 17.8061C2.34075 18.6774 3.59357 19.0718 5.16162 18.9894C6.72966 18.9069 7.98572 18.3816 8.9314 17.4116C9.87707 16.4417 10.3507 15.1905 10.3507 13.658V10.5721L6.74906 11.0716Z" fill="white"/>
<path d="M55.948 0.291669C55.948 0.205993 55.9189 0.13648 55.8591 0.0782845C55.7993 0.0217055 55.7265 -0.00416092 55.6425 0.000688707L52.6519 0.157494C52.5662 0.162343 52.4934 0.19629 52.4353 0.257718C52.3754 0.320763 52.3463 0.395129 52.3463 0.479189V3.56355L55.9496 3.83351V0.291669H55.948Z" fill="#D61D64"/>
<path d="M52.3454 18.2442C52.3454 18.367 52.3745 18.4689 52.4343 18.5481C52.4941 18.6289 52.5652 18.6661 52.6509 18.6596L55.6415 18.4349C55.7272 18.4285 55.7983 18.3816 55.8581 18.2911C55.9179 18.2022 55.947 18.0955 55.947 17.9726V5.38621L52.3438 5.07745V18.2442H52.3454Z" fill="white"/>
</svg>
