<svg width="20" height="20" viewBox="0 0 20 20" fill="none" xmlns="http://www.w3.org/2000/svg">
<path d="M12.5 11.1667C12.2238 11.1667 12 11.3906 12 11.6667C12 11.9429 12.2238 12.1667 12.5 12.1667V11.6667V11.1667ZM14.9493 17.3236C15.1445 17.5188 15.4611 17.5188 15.6564 17.3236C15.8516 17.1283 15.8516 16.8117 15.6564 16.6165L15.3028 16.97L14.9493 17.3236ZM12.2281 13.1882C12.0328 12.9929 11.7162 12.9929 11.521 13.1882C11.3257 13.3834 11.3257 13.7 11.521 13.8953L11.8745 13.5417L12.2281 13.1882ZM7.49995 12.1667C7.7761 12.1667 7.99995 11.9429 7.99995 11.6667C7.99995 11.3906 7.7761 11.1667 7.49995 11.1667V11.6667V12.1667ZM7.77096 10.1453C7.96622 10.3405 8.2828 10.3405 8.47807 10.1453C8.67333 9.95 8.67333 9.63342 8.47807 9.43816L8.12451 9.79171L7.77096 10.1453ZM4.69621 6.36341L4.34266 6.00985V6.00985L4.69621 6.36341ZM11.521 9.43816C11.3257 9.63342 11.3257 9.95 11.521 10.1453C11.7162 10.3405 12.0328 10.3405 12.2281 10.1453L11.8745 9.79171L11.521 9.43816ZM15.6564 6.71696C15.8516 6.5217 15.8516 6.20512 15.6564 6.00985C15.4611 5.81459 15.1445 5.81459 14.9493 6.00985L15.3028 6.36341L15.6564 6.71696ZM10.4995 14.2898C10.4995 14.0137 10.2757 13.7898 9.99951 13.7898C9.72337 13.7898 9.49951 14.0137 9.49951 14.2898H9.99951H10.4995ZM4.34266 16.6165C4.1474 16.8117 4.1474 17.1283 4.34266 17.3236C4.53792 17.5188 4.8545 17.5188 5.04976 17.3236L4.69621 16.97L4.34266 16.6165ZM8.47807 13.8953C8.67333 13.7 8.67333 13.3834 8.47807 13.1882C8.2828 12.9929 7.96622 12.9929 7.77096 13.1882L8.12451 13.5417L8.47807 13.8953ZM9.49951 9.00024C9.49951 9.27638 9.72337 9.50024 9.99951 9.50024C10.2757 9.50024 10.4995 9.27638 10.4995 9.00024H9.99951H9.49951ZM17.4995 11.6667V11.1667H12.5V11.6667V12.1667H17.4995V11.6667ZM15.3028 16.97L15.6564 16.6165L12.2281 13.1882L11.8745 13.5417L11.521 13.8953L14.9493 17.3236L15.3028 16.97ZM7.49995 11.6667V11.1667H2.49951V11.6667V12.1667H7.49995V11.6667ZM8.12451 9.79171L8.47807 9.43816L5.04976 6.00985L4.69621 6.36341L4.34266 6.71696L7.77096 10.1453L8.12451 9.79171ZM11.8745 9.79171L12.2281 10.1453L15.6564 6.71696L15.3028 6.36341L14.9493 6.00985L11.521 9.43816L11.8745 9.79171ZM9.99951 19.1667H10.4995V14.2898H9.99951H9.49951V19.1667H9.99951ZM4.69621 16.97L5.04976 17.3236L8.47807 13.8953L8.12451 13.5417L7.77096 13.1882L4.34266 16.6165L4.69621 16.97ZM17.4995 11.6667H16.9995C16.9995 15.5327 13.8655 18.6667 9.99951 18.6667V19.1667V19.6667C14.4178 19.6667 17.9995 16.085 17.9995 11.6667H17.4995ZM9.99951 19.1667V18.6667C6.13352 18.6667 2.99951 15.5327 2.99951 11.6667H2.49951H1.99951C1.99951 16.085 5.58123 19.6667 9.99951 19.6667V19.1667ZM12.5929 4.62717L12.42 5.09633C15.0939 6.08172 16.9995 8.65231 16.9995 11.6667H17.4995H17.9995C17.9995 8.21999 15.8201 5.28358 12.7658 4.15801L12.5929 4.62717ZM2.49951 11.6667H2.99951C2.99951 9.73357 3.78247 7.98426 5.04976 6.71696L4.69621 6.36341L4.34266 6.00985C2.89549 7.45702 1.99951 9.45771 1.99951 11.6667H2.49951ZM4.69621 6.36341L5.04976 6.71696C5.75967 6.00706 6.62087 5.44924 7.58024 5.09589L7.40743 4.6267L7.23462 4.15751C6.13704 4.56177 5.15308 5.19944 4.34266 6.00985L4.69621 6.36341ZM9.99951 9.00024H10.4995V6.99996H9.99951H9.49951V9.00024H9.99951Z" fill="#D9D9D9"/>
<circle cx="10" cy="11.6667" r="2.5" stroke="#D9D9D9"/>
<path fill-rule="evenodd" clip-rule="evenodd" d="M10.803 5.54252C10.5367 6.15249 9.46329 6.15249 9.19699 5.54252L8.04798 2.91027C8.00297 2.80717 7.98936 2.69689 8.00828 2.58869C8.02721 2.48049 8.07812 2.3775 8.15676 2.28836C8.23539 2.19922 8.33946 2.12652 8.46024 2.07635C8.58102 2.02618 8.71501 2 8.85097 2H11.149C11.285 2 11.419 2.02618 11.5398 2.07635C11.6605 2.12652 11.7646 2.19922 11.8432 2.28836C11.9219 2.3775 11.9728 2.48049 11.9917 2.58869C12.0106 2.69689 11.997 2.80717 11.952 2.91027L10.803 5.54252Z" fill="#D9D9D9"/>
</svg>
